<?xml version="1.0" standalone="no"?>
<!DOCTYPE svg PUBLIC "-//W3C//DTD SVG 20010904//EN"
 "http://www.w3.org/TR/2001/REC-SVG-20010904/DTD/svg10.dtd">
<svg version="1.0" xmlns="http://www.w3.org/2000/svg"
 width="550.000000pt" height="766.000000pt" viewBox="0 0 550.000000 766.000000"
 preserveAspectRatio="xMidYMid meet">

<g transform="translate(0.000000,766.000000) scale(0.100000,-0.100000)"
fill="#000000" stroke="none">
<path d="M3274 6375 c-37 -75 -73 -139 -78 -144 -10 -7 -131 -29 -268 -47 -27
-3 -48 -9 -48 -12 0 -4 52 -59 115 -122 l114 -115 -14 -70 c-9 -38 -18 -90
-21 -115 -3 -25 -9 -63 -14 -85 -5 -22 -7 -42 -4 -45 3 -3 70 28 148 69 l143
74 89 -46 c49 -25 113 -58 141 -73 29 -15 55 -25 58 -22 3 2 -7 76 -22 163
l-27 159 112 106 c62 58 112 110 112 116 0 7 -35 17 -87 24 -49 6 -119 17
-158 23 l-69 12 -71 142 c-38 78 -73 142 -77 142 -3 1 -37 -60 -74 -134z"/>
<path d="M1709 6247 c-373 -127 -399 -631 -42 -800 64 -30 75 -32 178 -32 103
0 114 2 178 32 88 42 168 121 210 210 30 64 32 74 32 183 0 111 -1 118 -34
185 -97 196 -320 291 -522 222z"/>
<path d="M3907 4964 c-131 -190 -240 -351 -243 -358 -3 -7 21 -30 58 -56 35
-23 97 -66 138 -95 41 -29 174 -120 294 -204 160 -111 222 -149 227 -139 4 7
113 166 243 353 129 187 235 345 236 350 0 6 -58 50 -128 98 -70 48 -227 158
-350 242 -122 85 -226 155 -230 155 -4 0 -114 -156 -245 -346z"/>
<path d="M2576 5104 c-340 -93 -457 -514 -214 -770 50 -53 52 -57 34 -70 -11
-7 -34 -17 -53 -20 -18 -3 -33 -10 -33 -15 0 -5 -4 -9 -9 -9 -14 0 -106 -64
-164 -114 -85 -73 -193 -217 -218 -294 -7 -20 -16 -41 -20 -47 -18 -25 -49
-189 -50 -261 -1 -95 8 -120 63 -180 79 -85 237 -148 465 -185 119 -19 162
-21 367 -16 151 3 259 10 311 21 240 47 391 118 458 215 31 45 32 49 29 141
-2 97 -21 184 -64 295 -58 150 -186 301 -338 395 -30 19 -58 38 -61 43 -3 5
-10 8 -15 8 -16 -2 -74 20 -80 30 -3 6 14 31 38 57 89 95 131 194 132 317 2
137 -41 243 -133 336 -90 90 -173 126 -306 134 -56 3 -98 0 -139 -11z"/>
<path d="M947 4953 c-15 -305 -37 -702 -42 -750 -8 -63 -3 -64 69 -24 28 15
114 61 191 101 77 40 181 94 230 120 50 26 153 80 230 120 100 53 135 76 125
82 -8 5 -82 50 -165 101 -421 261 -614 377 -622 377 -6 0 -13 -57 -16 -127z"/>
<path d="M880 3380 c-132 -32 -212 -103 -253 -224 -15 -45 -17 -131 -17 -866
0 -893 -2 -866 59 -962 34 -54 82 -89 167 -121 56 -21 75 -22 404 -25 294 -3
355 -1 415 14 151 36 237 118 263 254 14 72 15 91 13 310 l-1 185 -193 -2
c-105 -1 -218 -2 -249 -3 l-58 0 0 -190 c0 -243 9 -230 -164 -230 -123 0 -125
0 -145 26 -21 26 -21 34 -21 740 l0 713 24 28 c23 26 30 28 111 32 96 4 142
-3 171 -23 17 -13 19 -32 24 -213 l5 -198 248 -3 247 -2 1 42 c3 238 -4 441
-16 480 -36 122 -103 188 -229 227 -64 20 -88 21 -420 20 -193 -1 -367 -5
-386 -9z"/>
<path d="M3717 2993 c-51 -58 4 -135 82 -118 57 12 80 76 41 115 -26 26 -100
28 -123 3z"/>
<path d="M3405 2928 c-2 -7 -6 -35 -7 -63 -3 -46 -5 -50 -30 -53 -26 -3 -28
-6 -28 -53 0 -48 1 -49 30 -49 l30 0 0 -133 c0 -144 8 -188 41 -223 24 -26 97
-39 159 -29 l40 7 0 49 c0 47 -1 49 -28 49 -54 0 -63 23 -60 156 l3 119 38 3
37 3 0 49 0 49 -37 3 -38 3 -5 60 -5 60 -68 3 c-48 2 -69 -1 -72 -10z"/>
<path d="M2215 2796 c-31 -31 -45 -33 -45 -6 0 18 -7 20 -70 20 l-70 0 0 -240
0 -240 75 0 75 0 0 154 c0 187 2 190 110 198 l35 3 0 65 0 65 -42 3 c-35 3
-48 -2 -68 -22z"/>
<path d="M2502 2806 c-44 -15 -94 -63 -116 -111 -24 -51 -31 -141 -16 -206 18
-74 85 -141 159 -159 95 -23 199 -2 252 51 19 19 19 20 -12 59 l-32 40 -31
-19 c-66 -40 -149 -32 -176 19 -21 39 -10 42 126 41 71 -1 138 1 148 5 15 6
16 15 10 73 -11 112 -44 167 -119 202 -46 21 -142 24 -193 5z m147 -122 c12
-15 21 -35 21 -45 0 -17 -8 -19 -75 -19 -69 0 -75 2 -75 20 0 12 11 32 25 45
33 34 77 33 104 -1z"/>
<path d="M2998 2810 c-48 -14 -86 -43 -107 -80 -32 -57 -29 -60 49 -60 60 0
72 3 94 25 40 40 87 28 99 -24 9 -37 -9 -51 -67 -51 -69 0 -136 -24 -172 -61
-25 -26 -29 -38 -29 -87 1 -70 21 -103 79 -132 55 -26 121 -26 165 1 31 18 35
19 43 5 7 -12 26 -16 85 -16 68 0 74 2 67 18 -4 9 -10 94 -14 187 -7 202 -16
228 -99 264 -52 22 -140 27 -193 11z m140 -306 c4 -42 -26 -77 -66 -77 -60 0
-83 52 -41 94 15 15 30 19 62 17 39 -3 42 -5 45 -34z"/>
<path d="M4293 2812 l-71 -3 -32 -132 c-18 -73 -36 -139 -40 -147 -11 -18 -8
-26 -49 144 -17 71 -33 131 -35 133 -2 2 -37 3 -78 1 l-75 -3 48 -145 c25 -80
60 -187 75 -237 l29 -93 80 0 81 0 68 213 c37 116 72 223 77 236 6 13 6 27 2
30 -4 3 -40 5 -80 3z"/>
<path d="M4548 2806 c-47 -20 -97 -77 -118 -133 -55 -148 12 -306 146 -343 68
-19 173 -7 224 25 57 36 59 50 17 92 l-35 36 -27 -21 c-36 -28 -88 -37 -125
-22 -28 12 -60 49 -60 69 0 7 57 12 148 13 l147 3 -1 60 c-2 154 -80 235 -224
234 -36 0 -77 -6 -92 -13z m149 -118 c13 -12 23 -32 23 -45 0 -22 -3 -23 -75
-23 -69 0 -75 2 -75 20 0 30 44 70 76 70 15 0 38 -10 51 -22z"/>
<path d="M3700 2570 l0 -241 75 3 76 3 0 193 c0 105 -1 212 -1 237 l0 45 -75
0 -75 0 0 -240z"/>
<path d="M2170 1945 c-73 -33 -116 -94 -131 -186 -19 -121 21 -225 107 -275
42 -25 57 -28 129 -27 88 1 122 13 167 57 49 50 63 92 63 196 0 86 -3 99 -28
143 -15 26 -47 60 -69 75 -35 23 -54 27 -122 30 -57 1 -91 -2 -116 -13z m142
-106 c45 -24 64 -149 33 -222 -23 -55 -96 -69 -132 -25 -22 26 -36 102 -29
151 13 84 70 127 128 96z"/>
<path d="M2590 1710 l0 -250 75 0 75 0 0 158 c0 185 4 193 93 202 l52 5 3 68
3 67 -44 0 c-36 0 -51 -6 -77 -30 -18 -16 -34 -30 -36 -30 -2 0 -4 14 -4 30
l0 30 -70 0 -70 0 0 -250z"/>
<path d="M2950 1710 l0 -250 75 0 75 0 0 179 c0 175 1 180 22 195 12 9 34 16
48 16 14 0 36 -7 48 -16 21 -15 22 -20 22 -195 l0 -180 76 3 76 3 -2 194 c-1
170 -3 198 -20 232 -29 55 -54 69 -126 69 -59 0 -124 -22 -124 -42 0 -5 -7 -8
-15 -8 -9 0 -15 9 -15 25 0 24 -2 25 -70 25 l-70 0 0 -250z"/>
<path d="M3605 1943 c-49 -25 -94 -74 -112 -122 -24 -63 -23 -196 3 -237 65
-106 150 -143 285 -124 54 8 138 51 139 73 0 4 -15 24 -34 44 l-33 37 -28 -22
c-56 -44 -134 -37 -175 16 -39 49 -32 51 133 54 l152 3 -1 55 c-3 118 -53 205
-132 228 -54 16 -160 13 -197 -5z m161 -118 c16 -16 24 -34 22 -48 -3 -20 -9
-22 -80 -25 -76 -3 -78 -2 -78 21 0 13 11 36 25 51 32 34 77 35 111 1z"/>
<path d="M4010 1710 l0 -250 75 0 75 0 0 158 c0 189 2 193 84 200 l56 4 0 69
0 69 -44 0 c-37 0 -48 -5 -69 -30 -14 -16 -28 -30 -31 -30 -3 0 -6 14 -6 30
l0 30 -70 0 -70 0 0 -250z"/>
</g>
</svg>
